<svg width="20" height="13" viewBox="0 0 20 13" fill="none" xmlns="http://www.w3.org/2000/svg">
<path d="M12.2225 5.78162C12.285 6.13578 12.3163 6.46912 12.3163 6.78162C12.3163 7.92745 12.0767 8.94828 11.5975 9.84412C11.1184 10.7191 10.4413 11.4066 9.56628 11.9066C8.69128 12.4066 7.69128 12.6566 6.56628 12.6566C5.48295 12.6566 4.47253 12.3858 3.53503 11.8441C2.61837 11.3024 1.8892 10.5733 1.34753 9.65662C0.826701 8.73995 0.566284 7.73995 0.566284 6.65662C0.566284 5.57328 0.826701 4.57328 1.34753 3.65662C1.8892 2.73995 2.61837 2.01078 3.53503 1.46912C4.47253 0.92745 5.48295 0.656616 6.56628 0.656616C8.12878 0.656616 9.46212 1.17745 10.5663 2.21912L8.94128 3.78162C8.31628 3.17745 7.52462 2.87537 6.56628 2.87537C5.89962 2.87537 5.27462 3.04203 4.69128 3.37537C4.12878 3.7087 3.68087 4.16703 3.34753 4.75037C3.0142 5.3337 2.84753 5.96912 2.84753 6.65662C2.84753 7.34412 3.0142 7.97953 3.34753 8.56287C3.68087 9.1462 4.12878 9.60453 4.69128 9.93787C5.27462 10.2712 5.89962 10.4379 6.56628 10.4379C7.29545 10.4379 7.93087 10.2816 8.47253 9.96912C8.91003 9.71912 9.2642 9.36495 9.53503 8.90662C9.7642 8.55245 9.91003 8.2087 9.97253 7.87537H6.56628V5.78162H12.2225ZM18.0038 6.00037V4.25037H16.2538V6.00037H14.535V7.75037H16.2538V9.50037H18.0038V7.75037H19.7538V6.00037H18.0038Z" fill="white"/>
</svg>
