<svg width="17" height="14" viewBox="0 0 17 14" fill="none" xmlns="http://www.w3.org/2000/svg">
<path d="M14.4283 3.40662C14.4491 3.48995 14.4596 3.62537 14.4596 3.81287C14.4596 5.31287 14.095 6.76078 13.3658 8.15662C12.6158 9.63578 11.5637 10.8129 10.2096 11.6879C8.7304 12.667 7.03248 13.1566 5.11581 13.1566C3.28248 13.1566 1.6054 12.667 0.0845642 11.6879C0.313731 11.7087 0.574148 11.7191 0.865814 11.7191C2.38665 11.7191 3.75123 11.2504 4.95956 10.3129C4.2304 10.3129 3.58456 10.1045 3.02206 9.68787C2.4804 9.25037 2.1054 8.7087 1.89706 8.06287C2.1054 8.0837 2.30331 8.09412 2.49081 8.09412C2.78248 8.09412 3.07415 8.06287 3.36581 8.00037C2.61581 7.8337 1.99081 7.44828 1.49081 6.84412C0.990814 6.23995 0.740814 5.55245 0.740814 4.78162V4.71912C1.19915 4.98995 1.68873 5.13578 2.20956 5.15662C1.77206 4.84412 1.4179 4.44828 1.14706 3.96912C0.876231 3.48995 0.740814 2.96912 0.740814 2.40662C0.740814 1.82328 0.897064 1.2712 1.20956 0.750366C2.02206 1.7712 3.01165 2.5837 4.17831 3.18787C5.36581 3.79203 6.62623 4.12537 7.95956 4.18787C7.9179 3.93787 7.89706 3.68787 7.89706 3.43787C7.89706 2.85453 8.0429 2.31287 8.33456 1.81287C8.62623 1.29203 9.02206 0.885783 9.52206 0.594116C10.0221 0.30245 10.5637 0.156616 11.1471 0.156616C11.6262 0.156616 12.0637 0.250366 12.4596 0.437866C12.8762 0.625366 13.2408 0.875366 13.5533 1.18787C14.3033 1.04203 15.0012 0.781616 15.6471 0.406616C15.3971 1.17745 14.9179 1.78162 14.2096 2.21912C14.8346 2.13578 15.4596 1.9587 16.0846 1.68787C15.6262 2.35453 15.0741 2.92745 14.4283 3.40662Z" fill="white"/>
</svg>
